<svg xmlns="http://www.w3.org/2000/svg" width="48" height="42" viewBox="0 0 48 42"><defs><style>.a{fill:#231815;}</style></defs><g transform="translate(-102.344)"><g transform="translate(117.87 0)"><path class="a" d="M172.023,17.366a16.693,16.693,0,0,1,3.217,10.327,12.863,12.863,0,0,1-1.519,5.592,12.363,12.363,0,0,0,2.768.335,8.4,8.4,0,0,0,6.171-2.513,4.48,4.48,0,0,0,1.206-3.043V17.556a5.34,5.34,0,0,1,1.582-3.648l4.2-4.169c.252-.247.252-.5-.293-.516-.148,0-.3,0-.446,0-.6,0-1.205.02-1.817.02a13.119,13.119,0,0,1-2.023-.129c-1.393-.216-1.166-4.254-1.207-5.543C183.781.945,181.668,0,178.77,0,173,0,164.106,3.748,161.919,5.468a12.2,12.2,0,0,0-2.5,2.644A27.135,27.135,0,0,1,172.023,17.366Z" transform="translate(-157.336 0)"/><path class="a" d="M166.568,37.864A26.009,26.009,0,0,0,154.2,28.9c-2.627,4.62-1.725,10.54,1.515,15.093a26.017,26.017,0,0,0,12.365,8.959C170.71,48.335,169.809,42.416,166.568,37.864Z" transform="translate(-152.669 -19.93)"/></g><path class="a" d="M120.131,43.243a16.7,16.7,0,0,1-3.216-10.328,12.858,12.858,0,0,1,1.519-5.592,12.353,12.353,0,0,0-2.768-.335,8.4,8.4,0,0,0-6.171,2.513,4.475,4.475,0,0,0-1.206,3.043V43.052a5.344,5.344,0,0,1-1.582,3.647l-4.2,4.17c-.252.248-.252.5.291.515.157,0,.314,0,.473,0,.588,0,1.188-.019,1.79-.019a13.145,13.145,0,0,1,2.025.129c1.393.216,1.166,4.253,1.206,5.542.082,2.622,2.195,3.568,5.094,3.568,5.772,0,14.663-3.749,16.85-5.468a12.189,12.189,0,0,0,2.5-2.644A27.142,27.142,0,0,1,120.131,43.243Z" transform="translate(0 -18.608)"/></g></svg>