<svg xmlns="http://www.w3.org/2000/svg" width="280" height="79" viewBox="0 0 280 79"><defs><style>.a{fill:#fff;}.b{fill:#555;}</style></defs><g transform="translate(-95 -905)"><rect class="a" width="280" height="79" transform="translate(95 905)"/><g transform="translate(154 933.628)"><path class="b" d="M68.136,4.836h1.823a.207.207,0,0,0,.214-.2V1.4a.209.209,0,0,0-.214-.2H67.4c-2.962,0-4.533.892-5.429,2.788L56.4,16.824a1.7,1.7,0,0,1-1.785,1.13V1.4a.211.211,0,0,0-.217-.2H50.305a.212.212,0,0,0-.217.2V21.238a.372.372,0,0,0,.383.358H55.06c2.96,0,4.315-.893,5.212-2.783l5.5-12.681a2.239,2.239,0,0,1,2.367-1.3Z" transform="translate(-1.638 -0.039)"/><path class="b" d="M16.477,11.4a4.566,4.566,0,0,0,3-4.476c0-3.564-3.249-5.726-7.165-5.726H.214A.209.209,0,0,0,0,1.4V4.637a.207.207,0,0,0,.214.2H11.475c1.82,0,3.047,1.046,3.047,2.333S13.3,9.5,11.475,9.5H4.786V7.1a.21.21,0,0,0-.215-.2H.214A.209.209,0,0,0,0,7.1V21.393a.209.209,0,0,0,.214.2H12.14c4.457,0,7.649-1.957,7.649-5.946A4.429,4.429,0,0,0,16.477,11.4Zm-4.769,6.645H4.786V13.258h6.922c1.865,0,3.125,1.072,3.125,2.392S13.572,18.042,11.708,18.042Z" transform="translate(0 -0.039)"/><path class="b" d="M72.82,21.76l-7.015-8.449a.035.035,0,0,0-.063.008l-1.89,4.347a.08.08,0,0,0,.01.081l3.068,3.873a.958.958,0,0,0,.83.372H72.7a.136.136,0,0,0,.116-.232Z" transform="translate(-2.087 -0.435)"/><path class="b" d="M28.258,7.089h-4.1a.209.209,0,0,0-.214.2V21.585a.209.209,0,0,0,.214.2h4.1a.21.21,0,0,0,.215-.2V7.292a.21.21,0,0,0-.215-.2Z" transform="translate(-0.783 -0.232)"/><path class="b" d="M45.112,1.2h-4.1a.209.209,0,0,0-.213.2V17.954a1.7,1.7,0,0,1-1.783-1.13L33.447,3.983c-.9-1.9-2.467-2.788-5.429-2.788H24.159a.209.209,0,0,0-.214.2V4.637a.207.207,0,0,0,.214.2H27.28a2.24,2.24,0,0,1,2.368,1.3l5.5,12.681c.9,1.891,2.25,2.783,5.211,2.783h4.591a.368.368,0,0,0,.378-.358V1.4a.209.209,0,0,0-.213-.2Z" transform="translate(-0.783 -0.039)"/><path class="b" d="M109.456,18.806V14.259h-3.372v5.2c0,1.16.753,2.123,2.662,2.126h11.48V19.206H109.882a.413.413,0,0,1-.427-.4ZM156.43,7.775a4.166,4.166,0,0,0-1.677-3.361h1.9V2.3h-3.478V.446h-3.24V2.3h-3.5V4.415h1.946a4.161,4.161,0,0,0-1.68,3.361,4.9,4.9,0,0,0,9.738,0Zm-4.871,2.254a2.213,2.213,0,0,1-2.269-2.3,2.274,2.274,0,1,1,4.548,0,2.22,2.22,0,0,1-2.278,2.3ZM130.909,18.8v-3.51h-3.332v4.164c0,1.16.75,2.123,2.666,2.126h12.341V19.206H131.336a.415.415,0,0,1-.428-.4Zm-6.583-5.162h20.456V11.26H124.325Zm10.23-3.9c3.457,0,6.286-2.164,6.291-4.872S138.013,0,134.556,0s-6.29,2.164-6.293,4.87,2.834,4.868,6.294,4.872Zm0-7.4c1.772,0,3.181,1.146,3.185,2.529S136.328,7.4,134.556,7.4s-3.188-1.148-3.192-2.531,1.416-2.527,3.192-2.529ZM162.1.446V4.48h-1.409V.446h-2.875v10.8h1.634a1.165,1.165,0,0,0,1.241-1.223V7.035H162.1v4.209h1.637a1.165,1.165,0,0,0,1.239-1.223V.446Zm-3.6,11.706c-3.4.005-6.179,2.191-6.183,4.924S155.1,22,158.505,22s6.167-2.19,6.175-4.923c-.008-2.733-2.777-4.919-6.175-4.924Zm0,7.479a2.831,2.831,0,0,1-3.045-2.554,3.091,3.091,0,0,1,6.089,0,2.839,2.839,0,0,1-3.045,2.554ZM119.737.452h-3.162V14.887h1.882a1.2,1.2,0,0,0,1.28-1.267V7.266h2.878V4.6h-2.878ZM84.951,9.94h9.28c1.909,0,2.655-.964,2.656-2.124V.446H93.854V2.538H85.316V.446H82.289v7.37C82.293,8.977,83.039,9.938,84.951,9.94Zm.391-5.09h8.487V7.2a.416.416,0,0,1-.427.4H85.765a.415.415,0,0,1-.424-.4Zm-6.927,9.641h9.394v6.823H89.87a1.33,1.33,0,0,0,1.383-1.461V14.492h8.733V12.08H78.414Zm34.747-2.336.083.041,1.411-1.859-.145-.1c-2.636-1.761-4.683-4.248-4.683-7.3V.907H106.4V2.94c0,3.183-2.494,6.148-4.735,7.566l-.094.058,1.413,1.861.087-.042a14.3,14.3,0,0,0,5.046-4.964,13.611,13.611,0,0,0,5.04,4.737Z" transform="translate(-2.564)"/></g></g></svg>