<svg xmlns="http://www.w3.org/2000/svg" width="217" height="142" viewBox="0 0 217 142"><defs><style>.a{fill:#969696;}</style></defs><g transform="translate(-851.5 -461)"><g transform="translate(851.5 461)"><g transform="translate(0 5.226)"><path class="a" d="M37.229,136.683H22.6v-4.6H36.123v-.558a2.979,2.979,0,0,0-2.975-2.972H9.777v-7.746H35.7v-.554a2.972,2.972,0,0,0-2.972-2.97H7.778a2.969,2.969,0,0,0-2.979,2.97v8.855a2.979,2.979,0,0,0,2.979,2.975h9.786v4.6H0v.558a2.968,2.968,0,0,0,.869,2.093,2.936,2.936,0,0,0,2.106.876H40.2v-.557a2.963,2.963,0,0,0-2.971-2.97Z" transform="translate(0 -23.874)"/><path class="a" d="M20.967,147.231c-9,0-15.293,3.735-15.293,9.087s6.29,9.091,15.293,9.091,15.3-3.739,15.3-9.091S29.971,147.231,20.967,147.231Zm0,14.654c-5.854,0-10.614-2.509-10.614-5.6s4.76-5.6,10.614-5.6,10.62,2.509,10.62,5.6-4.764,5.6-10.62,5.6Z" transform="translate(-0.901 -28.635)"/><path class="a" d="M79.808,116.116a2.973,2.973,0,0,0-2.971,2.968v19.625h.811a2.929,2.929,0,0,0,2.1-.868,2.961,2.961,0,0,0,.874-2.1v-6.676h5.049v11.39h1.106a2.965,2.965,0,0,0,2.971-2.97V116.1h-1.1a2.979,2.979,0,0,0-2.973,2.972v6.462H80.623v-9.419Z" transform="translate(-12.194 -23.686)"/><path class="a" d="M68.079,129.368a10.407,10.407,0,0,0-2.325-6.824h3.863v-.554a2.984,2.984,0,0,0-2.977-2.969H61.734v-1.37a2.967,2.967,0,0,0-2.973-2.973H56.694v4.343H48.748v.557a2.965,2.965,0,0,0,2.97,2.967h.99a10.416,10.416,0,0,0-2.323,6.824c0,5.669,3.718,9.786,8.842,9.786S68.079,135.036,68.079,129.368Zm-8.853,6.185c-2.312,0-4.264-2.836-4.264-6.2s1.953-6.2,4.264-6.2S63.5,126,63.5,129.356s-1.959,6.2-4.271,6.2Z" transform="translate(-7.736 -23.459)"/><path class="a" d="M71.5,145.165c-9.051,0-15.133,4.008-15.133,9.963s6.082,9.952,15.133,9.952,15.125-4,15.125-9.952S80.547,145.165,71.5,145.165Zm0,16.406c-5.792,0-10.328-2.827-10.328-6.443s4.536-6.451,10.328-6.451,10.33,2.834,10.33,6.451-4.538,6.443-10.33,6.443Z" transform="translate(-8.945 -28.307)"/><path class="a" d="M87.708,90.891a2.441,2.441,0,0,0,2.425-2.421V68.078H88.4A2.421,2.421,0,0,0,85.981,70.5V72.13H78.713v2.98h7.268v2.208H78.713V80.3h7.268V90.891Z" transform="translate(-12.492 -16.05)"/><path class="a" d="M66.529,70.443a2.378,2.378,0,0,0-1.709-.717H63.086V85.534h17.04l.477-.266v-.415a2.413,2.413,0,0,0-2.412-2.428H67.235V72.153A2.4,2.4,0,0,0,66.529,70.443Z" transform="translate(-10.012 -16.312)"/><path class="a" d="M85.774,100.3H70.443V94.367a2.437,2.437,0,0,0-2.424-2.427H66.288V103.4H87.713l.484-.265v-.418a2.416,2.416,0,0,0-2.424-2.422Z" transform="translate(-10.52 -19.844)"/><path class="a" d="M7.322,99.347a2.3,2.3,0,0,0,2.3-2.3V69.853l-3.082.12-.11.251a3.472,3.472,0,0,1-.767,1.233A2.057,2.057,0,0,1,4.374,72l-.521.062v2.656H5.669V99.347Z" transform="translate(-0.611 -16.333)"/><path class="a" d="M14.413,84.574c0,8.761,3.581,14.882,8.714,14.882s8.715-6.121,8.715-14.882S28.258,69.7,23.126,69.7,14.413,75.816,14.413,84.574Zm8.714,11.861c-2.62,0-4.833-5.428-4.833-11.861s2.212-11.857,4.833-11.857,4.82,5.429,4.82,11.857-2.208,11.862-4.82,11.862Z" transform="translate(-2.287 -16.308)"/><path class="a" d="M55.8,84.574c0-8.758-3.586-14.876-8.714-14.876s-8.715,6.118-8.715,14.876,3.583,14.882,8.715,14.882S55.8,93.335,55.8,84.574ZM47.091,96.435c-2.618,0-4.827-5.428-4.827-11.861s2.21-11.857,4.827-11.857,4.824,5.429,4.824,11.857S49.706,96.435,47.091,96.435Z" transform="translate(-6.09 -16.308)"/><path class="a" d="M2.975,30.33H40.2v-.556A2.956,2.956,0,0,0,37.235,26.8H22.608V22.2H36.123v-.558a2.977,2.977,0,0,0-2.972-2.969H9.781V10.92H35.7v-.548A2.957,2.957,0,0,0,32.725,7.4H7.778a2.958,2.958,0,0,0-2.972,2.972V19.22A2.974,2.974,0,0,0,7.778,22.2h9.786v4.6H0v.561a2.962,2.962,0,0,0,.873,2.093,2.928,2.928,0,0,0,2.1.875Z" transform="translate(0 -6.403)"/><path class="a" d="M36.265,46.442c0-5.352-6.289-9.09-15.292-9.09s-15.3,3.739-15.3,9.09,6.291,9.09,15.3,9.09S36.265,51.795,36.265,46.442Zm-15.292,5.57c-5.859,0-10.619-2.513-10.619-5.6s4.76-5.6,10.619-5.6,10.619,2.514,10.619,5.6S26.824,52.012,20.973,52.012Z" transform="translate(-0.901 -11.165)"/><path class="a" d="M63.419,35.152A12.965,12.965,0,0,0,76.128,21.975a12.722,12.722,0,1,0-25.427,0A12.967,12.967,0,0,0,63.419,35.152Zm0-22.919c4.549,0,8.249,4.369,8.249,9.741s-3.7,9.743-8.249,9.743-8.256-4.371-8.256-9.743S58.864,12.233,63.419,12.233Z" transform="translate(-8.046 -6.625)"/><path class="a" d="M95.153,20.332a2.973,2.973,0,0,0-1.676-.836l-4.63-.034V6.214h-.814a2.967,2.967,0,0,0-2.971,2.969V49.305h.811a2.979,2.979,0,0,0,2.974-2.972V22.989h7.177v-.555A2.954,2.954,0,0,0,95.153,20.332Z" transform="translate(-13.499 -6.214)"/></g><g transform="translate(128.44 0)"><path class="a" d="M193.793,47.04a45,45,0,0,1,8.774,27.972,34.668,34.668,0,0,1-4.143,15.148,33.921,33.921,0,0,0,7.547.907A22.989,22.989,0,0,0,222.8,84.261a12.092,12.092,0,0,0,3.289-8.242V47.556a14.419,14.419,0,0,1,4.313-9.882l11.455-11.293c.686-.67.686-1.362-.8-1.4-.4-.009-.81-.012-1.218-.012-1.626,0-3.287.055-4.954.055a36.009,36.009,0,0,1-5.517-.349c-3.8-.586-3.181-11.523-3.292-15.015C225.855,2.56,220.094,0,212.19,0,196.449,0,172.2,10.154,166.24,14.812a33.112,33.112,0,0,0-6.822,7.161C173.914,26.508,187.459,38.2,193.793,47.04Z" transform="translate(-153.739 0)"/><path class="a" d="M190.571,53.175c-6.541-9.133-20.045-20.2-33.717-24.272-7.165,12.515-4.7,28.55,4.131,40.884,6.542,9.131,20.047,20.2,33.719,24.268C201.868,81.54,199.41,65.507,190.571,53.175Z" transform="translate(-152.669 -4.596)"/></g><path class="a" d="M150.848,71.022a45.017,45.017,0,0,1-8.771-27.976A34.651,34.651,0,0,1,146.22,27.9a33.9,33.9,0,0,0-7.547-.908A22.99,22.99,0,0,0,121.844,33.8a12.078,12.078,0,0,0-3.288,8.242V70.505a14.428,14.428,0,0,1-4.314,9.878l-11.454,11.3c-.686.672-.686,1.363.795,1.395.428.01.857.014,1.289.014,1.6,0,3.239-.053,4.881-.053a36.087,36.087,0,0,1,5.522.349c3.8.584,3.181,11.52,3.288,15.011.224,7.1,5.986,9.664,13.891,9.664,15.742,0,39.987-10.154,45.952-14.812a33.1,33.1,0,0,0,6.82-7.161C170.73,91.552,157.184,79.865,150.848,71.022Z" transform="translate(-16.242 -4.291)"/></g></g></svg>