<svg xmlns="http://www.w3.org/2000/svg" width="123" height="18" viewBox="0 0 123 18"><defs><style>.a{fill:#005bac;}.b{fill:#fabe00;}</style></defs><g transform="translate(19.965 1.804)"><path class="a" d="M381.736,485.086H366.368l-.668-1.035h16.036c.165,0,.2.2.2.517S381.888,485.086,381.736,485.086Zm-7.729-2.4c-3.988,0-7.013-1.017-7.013-3.143s3.038-3.139,7.013-3.139,7.013,1.013,7.013,3.139S377.982,482.682,374.006,482.682Zm7.178,7.765H368.1a1.112,1.112,0,0,1-1.107-1.113v-3.326h1.844a.573.573,0,0,1,.556.557v2.291a.569.569,0,0,0,.551.552h11.24c.165,0,.2.2.2.522S381.349,490.447,381.184,490.447Zm-7.178-13.012c-2.6,0-4.539.648-4.539,2.1s1.918,2.109,4.539,2.109,4.54-.648,4.54-2.109S376.628,477.435,374.006,477.435Z" transform="translate(-296.086 -475.957)"/><g transform="translate(87.043)"><path class="a" d="M423.855,486.278h-2.821a1.766,1.766,0,0,1,1.02,1.6c0,1.565-1.853,2.239-4.379,2.239s-4.379-.674-4.379-2.239,1.853-2.261,4.379-2.261H424.5v-8.66a.569.569,0,0,0-.551-.552h-1.736v2.956h-1.3v-2.4a.565.565,0,0,0-.556-.552h-1.736v7.578h2.3v-3.513h1.3v4.217h-4.57c-3.971,0-6.944,1.1-6.944,3.222s2.99,3.222,6.944,3.222,6.944-1.091,6.944-3.222A2.11,2.11,0,0,0,423.855,486.278Z" transform="translate(-408.605 -475.957)"/><path class="a" d="M414.922,480.136a2.829,2.829,0,0,0-.556-1.691h-2.331a2.389,2.389,0,0,1,.551,1.674c0,1.1-.486,2.274-1.844,2.274a2.093,2.093,0,0,1-1.87-2.274c0-1.248.677-2.348,1.857-2.348h4.466c.135,0,.165-.261.165-.539s-.03-.487-.165-.487H411.91v-.869a.487.487,0,0,0-.456-.5h-2.009v1.37H405.86l.538,1.026h1.358a2.923,2.923,0,0,0-1.137,2.365c0,1.822,1.636,3.278,4.123,3.278S414.922,481.958,414.922,480.136Z" transform="translate(-405.86 -475.38)"/></g><path class="a" d="M297.235,485.535a2.223,2.223,0,0,1,1.111,1.948c0,1.874-2.014,2.735-4.509,2.735s-4.509-.87-4.509-2.735,1.988-2.73,4.509-2.73h7.469a.208.208,0,0,0,.2-.2,2.178,2.178,0,0,0,0-.639.191.191,0,0,0-.191-.174H295v-1.952h6.015a.2.2,0,0,0,.2-.2,2.32,2.32,0,0,0,0-.643.2.2,0,0,0-.2-.174H289.632a.569.569,0,0,1-.577-.557v-2.778a.573.573,0,0,0-.582-.561H286.7v3.865a1.077,1.077,0,0,0,1.1,1.048h4.843v1.952H285.7l.673,1.017h2.061a3.075,3.075,0,0,0-1.454,2.608c0,2.674,3.073,3.891,6.861,3.891s6.866-1.217,6.866-3.891a2.9,2.9,0,0,0-.612-1.826Z" transform="translate(-250.805 -476.222)"/><path class="a" d="M332.334,478.583a2.323,2.323,0,0,1,.321.456,2.517,2.517,0,0,1,.33,1.23,2.462,2.462,0,1,1-2.491-2.5h5.295a.213.213,0,0,0,.2-.209,2.111,2.111,0,0,0,0-.652.2.2,0,0,0-.2-.178h-4.04v-.561a.582.582,0,0,0-.6-.565h-1.836v1.126H324.7c.1.135.664,1,.69,1.039h1.736a3.118,3.118,0,0,0-1.441,2.5c0,1.943,1.949,3.508,4.839,3.508a5.132,5.132,0,0,0,4.2-1.769h3.35v3.8h-8.9v-1.061a.582.582,0,0,0-.6-.57h-1.827v4.739A1.112,1.112,0,0,0,327.877,490h12.629V476.462a.586.586,0,0,0-.6-.574h-1.84v2.7Zm5.737,10.373H329.5a.321.321,0,0,1-.33-.317v-1.783h8.9Zm0-7.987h-2.825a2.67,2.67,0,0,0,.1-.7,2.728,2.728,0,0,0-.082-.648h2.8Z" transform="translate(-272.879 -475.51)"/><path class="a" d="M259.94,477.06h-2.126v5.5h-8.68v-5.5h-2.127a1.012,1.012,0,0,0-.911,1.087v11.621a1.008,1.008,0,0,0,.911,1.083h2.126v-5.9h8.68v5.9h2.126a1.008,1.008,0,0,0,.911-1.083V478.147A1.008,1.008,0,0,0,259.94,477.06Z" transform="translate(-228.386 -476.33)"/><path class="a" d="M219.457,477.06h-2.14v10.56l-6.38-8.413c-1.063-1.23-1.792-2.126-3.472-2.126H205.3V489.79a1.008,1.008,0,0,0,.916,1.083h2.122V480.264l6.432,8.378c1.085,1.261,2.053,2.23,3.628,2.23h1.962V478.147a1.013,1.013,0,0,0-.9-1.087Z" transform="translate(-205.293 -476.33)"/></g><path class="b" d="M15.7,0l-3.55,1.783L8.6,0l3.546,6.756Z" transform="translate(-4.872)"/><path class="b" d="M171.354,477.154l-.052-.043,2.526-1.07V472.48l-4.4,1.878L167,478.98a3.7,3.7,0,1,1-.868,0c-.052-.1-2.43-4.622-2.43-4.622l-4.392-1.878v3.561l2.53,1.07-.056.043a7.281,7.281,0,1,0,9.574,0Z" transform="translate(-159.289 -471.936)"/></svg>
