<svg xmlns="http://www.w3.org/2000/svg" width="118" height="16" viewBox="0 0 118 16"><defs><style>.a{fill:#cb1f23;}.b{fill:#645c4f;}</style></defs><g transform="translate(0 0.829)"><path class="a" d="M239.4,552.4h1.336a.15.15,0,0,0,.158-.146V549.9a.154.154,0,0,0-.158-.146h-1.873c-2.152,0-3.293.65-3.942,2.025l-4.047,9.329a1.249,1.249,0,0,1-1.3.833V549.9a.154.154,0,0,0-.158-.146h-2.972a.154.154,0,0,0-.158.146v14.429a.271.271,0,0,0,.279.258h3.33c2.152,0,3.135-.646,3.788-2.021l3.992-9.225A1.633,1.633,0,0,1,239.4,552.4Z" transform="translate(-191.087 -549.737)"/><path class="a" d="M153.7,557.161a3.333,3.333,0,0,0,2.181-3.254c0-2.592-2.36-4.167-5.2-4.167h-8.792a.154.154,0,0,0-.158.146v2.354a.15.15,0,0,0,.158.146h8.18c1.324,0,2.215.763,2.215,1.7s-.891,1.7-2.215,1.7H145.21v-1.75a.154.154,0,0,0-.158-.146h-3.164a.154.154,0,0,0-.158.146v10.417a.15.15,0,0,0,.158.146h8.663c3.239,0,5.558-1.421,5.558-4.321A3.23,3.23,0,0,0,153.7,557.161Zm-3.464,4.833H145.21v-3.479h5.029c1.353,0,2.269.779,2.269,1.742s-.916,1.737-2.269,1.737Z" transform="translate(-141.73 -549.732)"/><path class="a" d="M256.032,576.346l-5.1-6.167a.025.025,0,0,0-.046,0l-1.374,3.158a.058.058,0,0,0,0,.063l2.227,2.817a.7.7,0,0,0,.6.267h3.609a.1.1,0,0,0,.075-.138Z" transform="translate(-204.639 -561.646)"/><path class="a" d="M185.291,559.7h-2.977a.15.15,0,0,0-.154.146v10.417a.146.146,0,0,0,.154.146h2.977a.15.15,0,0,0,.158-.146V559.846A.154.154,0,0,0,185.291,559.7Z" transform="translate(-165.329 -555.542)"/><path class="a" d="M197.568,549.733h-2.956a.15.15,0,0,0-.154.146V561.92a1.249,1.249,0,0,1-1.295-.833l-4.051-9.342c-.649-1.375-1.794-2.025-3.942-2.025h-2.806a.15.15,0,0,0-.154.146v2.354a.146.146,0,0,0,.154.146h2.256a1.627,1.627,0,0,1,1.719.942l3.992,9.225c.654,1.375,1.636,2.021,3.788,2.021h3.33a.266.266,0,0,0,.275-.258V549.878A.154.154,0,0,0,197.568,549.733Z" transform="translate(-165.358 -549.72)"/></g><path class="b" d="M296.665,561.405v-3.3h-2.452v3.779c0,.833.55,1.542,1.936,1.546h8.326V561.7h-7.514A.3.3,0,0,1,296.665,561.405Zm34.137-8.021a3.03,3.03,0,0,0-1.216-2.442h1.378V549.4h-2.527v-1.346h-2.356V549.4h-2.548v1.542h1.415a3.026,3.026,0,0,0-1.22,2.442,3.553,3.553,0,0,0,7.065,0Zm-3.539,1.637a1.667,1.667,0,1,1,1.665-1.667,1.608,1.608,0,0,1-1.674,1.667ZM312.277,561.4v-2.55h-2.419v3.029c0,.833.541,1.542,1.936,1.546h8.967V561.7h-8.2a.3.3,0,0,1-.312-.3Zm-4.783-3.75h14.862v-1.733H307.494Zm7.435-2.837c2.5,0,4.579-1.571,4.579-3.542s-2.061-3.537-4.579-3.542-4.579,1.575-4.579,3.542,2.04,3.542,4.554,3.542Zm0-5.379a1.889,1.889,0,1,1-2.319,1.837,2.094,2.094,0,0,1,2.294-1.837Zm20.016-1.379v2.917h-1.024v-2.917h-2.082v7.85h1.186a.833.833,0,0,0,.9-.888v-2.175h1.024V555.9h1.141a.833.833,0,0,0,.9-.887v-6.958Zm-2.619,8.512c-2.469,0-4.488,1.592-4.492,3.583s2.023,3.575,4.492,3.579,4.484-1.6,4.488-3.579-2.04-3.558-4.513-3.583Zm0,5.417a1.887,1.887,0,1,1,2.215-1.854,2.092,2.092,0,0,1-2.24,1.879Zm-28.167-13.946h-2.294v10.5h1.34a.87.87,0,0,0,.928-.921v-4.6h2.082v-1.942h-2.082Zm-25.274,6.9h6.744c1.386,0,1.928-.7,1.928-1.546v-5.337h-2.2v1.521h-6.2v-1.521h-2.2v5.358c-.025.846.52,1.546,1.907,1.546Zm.283-3.7H285.3v1.708a.3.3,0,0,1-.308.3h-5.545a.3.3,0,0,1-.308-.3Zm-5.058,7.021h6.827v4.963h1.5a.966.966,0,0,0,1-1.062v-3.9h6.344V556.5H274.11Zm25.249-1.667.058.029,1.024-1.354-.1-.071c-1.915-1.279-3.4-3.087-3.4-5.308v-1.479h-2.5v1.479c0,2.317-1.811,4.471-3.439,5.5l-.067.042,1.024,1.354.062-.033a10.387,10.387,0,0,0,3.668-3.608A9.916,9.916,0,0,0,299.359,556.593Z" transform="translate(-218.999 -547.73)"/></svg>
